<svg width="1920" height="341" viewBox="0 0 1920 341" fill="none" xmlns="http://www.w3.org/2000/svg">
<path d="M-116 225L20.8196 167.332L268.933 189.807C333.939 175.695 463.952 149.456 463.952 157.401C463.952 165.346 564.014 185.335 614.045 194.336L922.91 152L1162.34 157.401C1199.27 168.261 1278.95 188.343 1302.23 181.792C1331.33 173.604 1426.28 152 1444.66 152C1459.37 152 1579.1 152 1637.13 152L1753.02 167.332L1824.49 181.792H1922" stroke="white" stroke-opacity="0.11"/>
<path d="M-123 74L13.8196 16.3318L261.933 38.8067C326.939 24.6945 456.952 -1.54363 456.952 6.40099C456.952 14.3456 557.014 34.3349 607.045 43.3365L915.91 1L1155.34 6.40099C1192.27 17.261 1271.95 37.3432 1295.23 30.7923C1324.33 22.6038 1419.28 1 1437.66 1C1452.37 1 1572.1 1 1630.13 1L1746.02 16.3318L1817.49 30.7923H1915" stroke="white" stroke-opacity="0.11"/>
<path d="M-116 249L20.8196 191.332L268.933 213.807C333.939 199.695 463.952 173.456 463.952 181.401C463.952 189.346 564.014 209.335 614.045 218.336L922.91 176L1162.34 181.401C1199.27 192.261 1278.95 212.343 1302.23 205.792C1331.33 197.604 1426.28 176 1444.66 176C1459.37 176 1579.1 176 1637.13 176L1753.02 191.332L1824.49 205.792H1922" stroke="white" stroke-opacity="0.11"/>
<path d="M-123 98L13.8196 40.3318L261.933 62.8067C326.939 48.6945 456.952 22.4564 456.952 30.401C456.952 38.3456 557.014 58.3349 607.045 67.3365L915.91 25L1155.34 30.401C1192.27 41.261 1271.95 61.3432 1295.23 54.7923C1324.33 46.6038 1419.28 25 1437.66 25C1452.37 25 1572.1 25 1630.13 25L1746.02 40.3318L1817.49 54.7923H1915" stroke="white" stroke-opacity="0.11"/>
<path d="M-116 279L20.8196 221.332L268.933 243.807C333.939 229.695 463.952 203.456 463.952 211.401C463.952 219.346 564.014 239.335 614.045 248.336L922.91 206L1162.34 211.401C1199.27 222.261 1278.95 242.343 1302.23 235.792C1331.33 227.604 1426.28 206 1444.66 206C1459.37 206 1579.1 206 1637.13 206L1753.02 221.332L1824.49 235.792H1922" stroke="white" stroke-opacity="0.11"/>
<path d="M-123 128L13.8196 70.3318L261.933 92.8067C326.939 78.6945 456.952 52.4564 456.952 60.401C456.952 68.3456 557.014 88.3349 607.045 97.3365L915.91 55L1155.34 60.401C1192.27 71.261 1271.95 91.3432 1295.23 84.7923C1324.33 76.6038 1419.28 55 1437.66 55C1452.37 55 1572.1 55 1630.13 55L1746.02 70.3318L1817.49 84.7923H1915" stroke="white" stroke-opacity="0.11"/>
<path d="M-116 316L20.8196 258.332L268.933 280.807C333.939 266.695 463.952 240.456 463.952 248.401C463.952 256.346 564.014 276.335 614.045 285.336L922.91 243L1162.34 248.401C1199.27 259.261 1278.95 279.343 1302.23 272.792C1331.33 264.604 1426.28 243 1444.66 243C1459.37 243 1579.1 243 1637.13 243L1753.02 258.332L1824.49 272.792H1922" stroke="white" stroke-opacity="0.11"/>
<path d="M-123 165L13.8196 107.332L261.933 129.807C326.939 115.695 456.952 89.4564 456.952 97.401C456.952 105.346 557.014 125.335 607.045 134.336L915.91 92L1155.34 97.401C1192.27 108.261 1271.95 128.343 1295.23 121.792C1324.33 113.604 1419.28 92 1437.66 92C1452.37 92 1572.1 92 1630.13 92L1746.02 107.332L1817.49 121.792H1915" stroke="white" stroke-opacity="0.11"/>
<path d="M-116 340L20.8196 282.332L268.933 304.807C333.939 290.695 463.952 264.456 463.952 272.401C463.952 280.346 564.014 300.335 614.045 309.336L922.91 267L1162.34 272.401C1199.27 283.261 1278.95 303.343 1302.23 296.792C1331.33 288.604 1426.28 267 1444.66 267C1459.37 267 1579.1 267 1637.13 267L1753.02 282.332L1824.49 296.792H1922" stroke="white" stroke-opacity="0.11"/>
<path d="M-123 189L13.8196 131.332L261.933 153.807C326.939 139.695 456.952 113.456 456.952 121.401C456.952 129.346 557.014 149.335 607.045 158.336L915.91 116L1155.34 121.401C1192.27 132.261 1271.95 152.343 1295.23 145.792C1324.33 137.604 1419.28 116 1437.66 116C1452.37 116 1572.1 116 1630.13 116L1746.02 131.332L1817.49 145.792H1915" stroke="white" stroke-opacity="0.11"/>
</svg>
